<svg width="24" height="24" viewBox="0 0 24 24" fill="none" xmlns="http://www.w3.org/2000/svg">
<path d="M22.0797 10C22.0797 9.44771 22.5096 9 23.0398 9C23.5701 9 24 9.44771 24 10V19C24 20.6569 22.7104 22 21.1195 22H2.88048C1.28964 22 0 20.6569 0 19V5C0 3.34315 1.28964 2 2.88048 2H21.1195C22.7104 2 24 3.34315 24 5V7C24 7.55228 23.5701 8 23.0398 8C22.5096 8 22.0797 7.55228 22.0797 7V5C22.0797 4.44772 21.6498 4 21.1195 4H2.88048C2.3502 4 1.92032 4.44772 1.92032 5V19C1.92032 19.5523 2.3502 20 2.88048 20H21.1195C21.6498 20 22.0797 19.5523 22.0797 19V10Z" fill="#222222"/>
<path fill-rule="evenodd" clip-rule="evenodd" d="M7 7.66699C7 7.11471 7.44772 6.66699 8 6.66699H19C19.5523 6.66699 20 7.11471 20 7.66699C20 8.21928 19.5523 8.66699 19 8.66699H8C7.44772 8.66699 7 8.21928 7 7.66699Z" fill="#A58154"/>
<path fill-rule="evenodd" clip-rule="evenodd" d="M7 11.667C7 11.1147 7.44772 10.667 8 10.667H19C19.5523 10.667 20 11.1147 20 11.667C20 12.2193 19.5523 12.667 19 12.667H8C7.44772 12.667 7 12.2193 7 11.667Z" fill="#A58154"/>
<path fill-rule="evenodd" clip-rule="evenodd" d="M7 15.667C7 15.1147 7.44772 14.667 8 14.667H14C14.5523 14.667 15 15.1147 15 15.667C15 16.2193 14.5523 16.667 14 16.667H8C7.44772 16.667 7 16.2193 7 15.667Z" fill="#A58154"/>
<circle cx="5" cy="15.667" r="1" fill="#A58154"/>
<ellipse cx="5" cy="11.6691" rx="1" ry="1.00208" fill="#A58154"/>
<ellipse cx="5" cy="7.66908" rx="1" ry="1.00208" fill="#A58154"/>
</svg>
